<?xml version="1.0" encoding="UTF-8"?>
<svg id="Layer_3" data-name="Layer 3" xmlns="http://www.w3.org/2000/svg" viewBox="0 0 24 24">
  <path d="M0,11.32c0,.58.38,1.08,1.01,1.08.3,0,.57-.18.81-.42l1.13-1.08v10.46c0,1.66.88,2.64,2.37,2.64h13.3c1.49,0,2.37-.98,2.37-2.64v-10.52l1.2,1.15c.24.24.5.42.81.42.57,0,1-.4,1-1.04,0-.38-.13-.69-.38-.92L13.39.61c-.85-.81-1.91-.81-2.76,0L.38,10.43c-.26.25-.38.57-.38.89ZM14.83,14.43c0-.53-.29-.86-.76-.86h-4.14c-.45,0-.77.34-.77.86v7.37h-3.33c-.62,0-.95-.39-.95-1.1v-11.65l6.72-6.42c.27-.27.57-.27.84,0l6.64,6.36v11.71c0,.71-.33,1.1-.95,1.1h-3.28v-7.37Z"/>
</svg>