<?xml version="1.0" encoding="UTF-8"?>
<svg id="Layer_1" xmlns="http://www.w3.org/2000/svg" version="1.1" viewBox="0 0 24 24">
  <!-- Generator: Adobe Illustrator 29.6.1, SVG Export Plug-In . SVG Version: 2.1.1 Build 9)  -->
  <path d="M20.4,20.4h-3.6v-5.6c0-1.3,0-3-1.8-3s-2.1,1.4-2.1,2.9v5.7h-3.6v-11.5h3.4v1.6h0c.7-1.2,2-1.9,3.4-1.8,3.6,0,4.3,2.4,4.3,5.5v6.3ZM5.3,7.4c-1.1,0-2.1-.9-2.1-2.1,0-1.1.9-2.1,2.1-2.1,1.1,0,2.1.9,2.1,2.1s-.9,2.1-2.1,2.1h0M7.1,20.4h-3.6v-11.5h3.6v11.5ZM22.2,0H1.8C.8,0,0,.8,0,1.7v20.5c0,1,.8,1.7,1.8,1.7h20.5c1,0,1.8-.8,1.8-1.7V1.7c0-1-.8-1.7-1.8-1.7"/>
</svg>